<svg width="20" height="20" viewBox="0 0 20 20" fill="none" xmlns="http://www.w3.org/2000/svg">
<path d="M14.6666 10.0306C14.298 10.0306 14 10.3293 14 10.6973V16.0306C14 16.3979 13.7013 16.6973 13.3334 16.6973H4C3.63196 16.6973 3.33337 16.3979 3.33337 16.0306V6.69727C3.33337 6.32996 3.63196 6.03064 4 6.03064H9.33337C9.70203 6.03064 10 5.73193 10 5.36401C10 4.99597 9.70203 4.69727 9.33337 4.69727H4C2.89734 4.69727 2 5.5946 2 6.69727V16.0306C2 17.1333 2.89734 18.0306 4 18.0306H13.3334C14.436 18.0306 15.3334 17.1333 15.3334 16.0306V10.6973C15.3334 10.3286 15.0353 10.0306 14.6666 10.0306Z" fill="white"/>
<path d="M8.25075 9.4231C8.20412 9.46973 8.17275 9.52905 8.15944 9.59302L7.68813 11.9504C7.66616 12.0597 7.70082 12.1724 7.77944 12.2517C7.84279 12.3151 7.92812 12.349 8.01552 12.349C8.03676 12.349 8.05886 12.347 8.08083 12.3424L10.4375 11.8711C10.5028 11.8577 10.5622 11.8264 10.6082 11.7797L15.8828 6.505L13.5261 4.14844L8.25075 9.4231Z" fill="white"/>
<path d="M17.5117 2.51877C16.8618 1.86874 15.8044 1.86874 15.155 2.51877L14.2324 3.44138L16.5891 5.79807L17.5117 4.87534C17.8264 4.56137 17.9998 4.14267 17.9998 3.69736C17.9998 3.25204 17.8264 2.83334 17.5117 2.51877Z" fill="white"/>
</svg>
